<svg xmlns="http://www.w3.org/2000/svg" width="32" height="32" viewBox="0 0 32 32" fill="none"><rect width="32" height="32" rx="8.46" fill="url(#paint0_radial)"></rect><rect width="21" height="19" rx="8.46" fill="url(#paint1_radial)"></rect><path d="M0 7H32V23C32 27.9706 27.9706 32 23 32H8.46C3.78767 32 0 28.2123 0 23.54V7Z" fill="url(#paint2_radial)"></path><circle cx="8.5" cy="11.5" r="7.5" fill="url(#paint3_radial)" fill-opacity="0.56"></circle><circle cx="22" cy="7" r="7" fill="url(#paint4_radial)" fill-opacity="0.56"></circle><path d="M16 12.5C16 17.1944 10.4036 21 3.50001 21C3 21 0 17.1944 0 12.5C0 7.80558 1 4 3.50001 4C10.4036 4 16 7.80558 16 12.5Z" fill="url(#paint5_radial)" fill-opacity="0.96"></path><path d="M26 30.5882C26 32 19.8973 32 15.3019 32C10.7065 32 5 32 5 30.5882C5 20.2353 10.7065 16 15.3019 16C19.8973 16 26 22.5882 26 30.5882Z" fill="url(#paint6_radial)" fill-opacity="0.46"></path><path d="M0 8.46C0 3.78767 3.78767 0 8.46 0H23.54C28.2123 0 32 3.78767 32 8.46V9.54C32 14.2123 28.2123 18 23.54 18H8.46C3.78767 18 0 14.2123 0 9.54V8.46Z" fill="url(#paint7_linear)" fill-opacity="0.8"></path><path d="M17 17.5C17 21.0899 14.0899 24 10.5 24C6.91015 24 4 21.0899 4 17.5C4 13.9101 6.91015 11 10.5 11C14.0899 11 17 13.9101 17 17.5Z" fill="url(#paint8_radial)" fill-opacity="0.8"></path><path d="M18 21.5C18 25.0899 15.0899 28 11.5 28C7.91015 28 5 25.0899 5 21.5C5 17.9101 7.91015 15 11.5 15C15.0899 15 18 17.9101 18 21.5Z" fill="url(#paint9_radial)" fill-opacity="0.5"></path><ellipse cx="10.5" cy="5.5" rx="9.5" ry="5.5" fill="url(#paint10_radial)" fill-opacity="0.75"></ellipse><g clip-path="url(#clip0)"><path d="M24.3431 21.3187C24.3075 21.3542 24.2719 21.3897 24.2363 21.4606C24.2719 21.3897 24.3075 21.3542 24.3431 21.3187Z" fill="white"></path><path d="M26.9771 13.4808C26.8703 10.0052 24.0579 7.23889 20.569 7.23889C18.8602 7.23889 17.2938 7.91274 16.1546 9.01217C14.9797 7.91274 13.4489 7.23889 11.7401 7.23889C8.25127 7.23889 5.40323 10.0407 5.33203 13.5518V13.5872V13.6227C5.33203 16.2826 6.29324 18.6588 7.18325 20.2902C7.64606 21.1059 8.07326 21.7798 8.42927 22.2763C8.60727 22.5245 8.74967 22.7019 8.85647 22.8437C8.89207 22.9147 8.96327 22.9501 8.99887 22.9856C8.99887 23.0211 9.03447 23.0211 9.03447 23.0211C9.78208 23.8722 11.0637 23.9786 11.9181 23.2338C12.7725 22.4891 12.8437 21.1768 12.1317 20.3257C12.1317 20.2902 12.0961 20.2902 12.0605 20.2193C11.9893 20.1483 11.8825 20.0065 11.7401 19.8292C11.4909 19.4745 11.1349 18.9425 10.7789 18.3041C10.0669 16.9919 9.42608 15.3605 9.42608 13.6582C9.46168 12.4169 10.4941 11.4238 11.7401 11.4238C12.9861 11.4238 14.0185 12.4523 14.0541 13.6936C14.0541 14.0128 14.1609 14.332 14.2677 14.5803C14.5525 15.3605 15.3001 15.8925 16.1902 15.8925C17.3294 15.8925 18.255 14.9704 18.255 13.8355V13.5518C18.2906 12.3105 19.323 11.3174 20.569 11.3174C21.815 11.3174 22.8474 12.3105 22.883 13.5518C22.883 14.8994 22.4558 16.2117 21.9574 17.2756C21.7082 17.8076 21.4946 18.1977 21.3166 18.4815C21.2454 18.6233 21.1742 18.7297 21.103 18.8007C21.0674 18.8361 21.0674 18.8716 21.0674 18.8716L21.0318 18.9071C21.4234 18.446 21.993 18.1268 22.6338 18.1268C23.773 18.1268 24.6987 19.0489 24.6987 20.1838C24.6987 20.5739 24.5919 20.964 24.3783 21.2832C24.3783 21.2832 24.3783 21.2478 24.4139 21.2478C24.4495 21.2123 24.4851 21.1768 24.5207 21.1059C24.5919 20.9995 24.6987 20.8222 24.8055 20.6449C25.0547 20.2547 25.3751 19.6873 25.6955 19.0134C26.3363 17.6658 27.0127 15.7152 27.0127 13.5518L26.9771 13.4808Z" fill="white"></path><path d="M22.598 18.1623C21.9572 18.1623 21.3876 18.4815 20.996 18.9425C20.7112 19.2972 20.5332 19.7228 20.5332 20.2193C20.5332 21.3542 21.4588 22.2763 22.598 22.2763C23.2744 22.2763 23.844 21.9571 24.2356 21.4606C24.2712 21.4251 24.3068 21.3897 24.3424 21.3187C24.556 20.9995 24.6628 20.6094 24.6628 20.2193C24.6628 19.0489 23.7372 18.1623 22.598 18.1623Z" fill="#B7E803"></path></g><rect x="0.5" y="0.5" width="31" height="31" rx="7.96" stroke="url(#paint11_radial)"></rect><defs><radialGradient id="paint0_radial" cx="0" cy="0" r="1" gradientUnits="userSpaceOnUse" gradientTransform="translate(27 4) rotate(90) scale(23)"><stop offset="0.1531" stop-color="#02FB06"></stop><stop offset="0.3626" stop-color="#07F018"></stop><stop offset="0.869" stop-color="#1BC35C"></stop><stop offset="1" stop-color="#22B573"></stop></radialGradient><radialGradient id="paint1_radial" cx="0" cy="0" r="1" gradientUnits="userSpaceOnUse" gradientTransform="translate(10.3306 4.07143) scale(9.56409 35.3721)"><stop stop-color="#FCBE32"></stop><stop offset="1" stop-color="#23B674" stop-opacity="0"></stop></radialGradient><radialGradient id="paint2_radial" cx="0" cy="0" r="1" gradientUnits="userSpaceOnUse" gradientTransform="translate(2.06504e-06 31.9761) rotate(-40.8102) scale(27.1793 29.7196)"><stop offset="0.244792" stop-color="#662D91"></stop><stop offset="1" stop-color="#2E3192" stop-opacity="0"></stop></radialGradient><radialGradient id="paint3_radial" cx="0" cy="0" r="1" gradientUnits="userSpaceOnUse" gradientTransform="translate(8.5 11.2449) rotate(90) scale(7.24488)"><stop offset="0.364583" stop-color="#F91616"></stop><stop offset="1" stop-color="#2E3192" stop-opacity="0"></stop></radialGradient><radialGradient id="paint4_radial" cx="0" cy="0" r="1" gradientUnits="userSpaceOnUse" gradientTransform="translate(22 6.76189) rotate(90) scale(6.76189)"><stop offset="0.135417" stop-color="#F4F916"></stop><stop offset="0.9375" stop-color="#ADFF00" stop-opacity="0"></stop></radialGradient><radialGradient id="paint5_radial" cx="0" cy="0" r="1" gradientUnits="userSpaceOnUse" gradientTransform="translate(3.5 12.2109) rotate(90) scale(8.21086 12.0748)"><stop stop-color="#9D55DB"></stop><stop offset="1" stop-color="#C111FF" stop-opacity="0"></stop></radialGradient><radialGradient id="paint6_radial" cx="0" cy="0" r="1" gradientUnits="userSpaceOnUse" gradientTransform="translate(15.3019 31.0588) rotate(90) scale(11.2941 9.50944)"><stop stop-color="#3CA1EA"></stop><stop offset="0.776042" stop-color="#11FFB8" stop-opacity="0"></stop></radialGradient><linearGradient id="paint7_linear" x1="15.4839" y1="6.42857" x2="15.4839" y2="18.6429" gradientUnits="userSpaceOnUse"><stop stop-color="#FBF102"></stop><stop offset="1" stop-color="#BDE022" stop-opacity="0"></stop></linearGradient><radialGradient id="paint8_radial" cx="0" cy="0" r="1" gradientUnits="userSpaceOnUse" gradientTransform="translate(9.98 15.16) rotate(135) scale(5.88313)"><stop stop-color="#DA25E9"></stop><stop offset="0.802083" stop-color="#DA25E9" stop-opacity="0"></stop></radialGradient><radialGradient id="paint9_radial" cx="0" cy="0" r="1" gradientUnits="userSpaceOnUse" gradientTransform="translate(10.98 19.16) rotate(135) scale(5.88313)"><stop offset="0.104167" stop-color="#DA25E9"></stop><stop offset="1" stop-color="#DA25E9" stop-opacity="0"></stop></radialGradient><radialGradient id="paint10_radial" cx="0" cy="0" r="1" gradientUnits="userSpaceOnUse" gradientTransform="translate(8.5 2) rotate(84.8056) scale(5.52268 9.53917)"><stop offset="0.0459339" stop-color="#FBFF33"></stop><stop offset="1" stop-color="#F1C116" stop-opacity="0"></stop></radialGradient><radialGradient id="paint11_radial" cx="0" cy="0" r="1" gradientUnits="userSpaceOnUse" gradientTransform="translate(10.3448 -1.54839) rotate(85.8314) scale(34.1549 36.5014)"><stop offset="0.00520833" stop-color="#ECF5FC"></stop><stop offset="1" stop-color="#CEE4F3"></stop></radialGradient><clipPath id="clip0"><rect width="21.6451" height="16.4915" fill="white" transform="translate(5.33203 7.23889)"></rect></clipPath></defs></svg>