<svg xmlns="http://www.w3.org/2000/svg" width="30" height="32" viewBox="0 0 30 32" fill="none"><path d="M21.4265 29.1282H8.71667C4.4498 29.1282 1 25.6784 1 21.4116V8.70177C1 4.43491 4.4498 0.985107 8.71667 0.985107H21.4265C25.6933 0.985107 29.1431 4.43491 29.1431 8.70177V21.4116C29.1431 25.6784 25.6933 29.1282 21.4265 29.1282Z" fill="url(#paint0_radial)" stroke="#FCB13C" stroke-width="0.907843"></path><path d="M20.3224 12.2532C20.6246 12.2532 20.875 11.9993 20.875 11.6929C20.875 11.3864 20.6246 11.1325 20.3224 11.1325C20.167 11.1325 20.0288 11.1938 19.9252 11.2988L18.0255 10.1869C18.0169 10.1781 17.9996 10.1781 17.991 10.1693C17.9824 10.1693 17.9651 10.1606 17.9565 10.1606C17.9478 10.1606 17.9478 10.1606 17.9392 10.1606C17.9219 10.1606 17.896 10.1693 17.8874 10.1781C17.8701 10.1869 17.8615 10.2044 17.8442 10.2131C17.8356 10.2306 17.8269 10.2394 17.8183 10.2569C17.8183 10.2657 17.8097 10.2832 17.8097 10.2919V13.0588C17.8097 13.0675 17.8097 13.0675 17.8097 13.0763C17.8097 13.0938 17.8183 13.1113 17.8269 13.1288C17.8356 13.1463 17.8529 13.1638 17.8701 13.1726C17.8701 13.1726 17.8788 13.1813 17.8874 13.1813L20.2447 14.5648C20.3137 14.5998 20.3915 14.5823 20.4346 14.5122C20.4692 14.4422 20.4519 14.3634 20.3828 14.3196L18.086 12.98V10.5283L19.7784 11.5177C19.7611 11.5615 19.7611 11.6141 19.7611 11.6666C19.7698 11.9993 20.0202 12.2532 20.3224 12.2532Z" fill="url(#paint1_linear)"></path><path d="M18.5178 2.85831C18.5178 2.55186 18.2674 2.29793 17.9652 2.29793C17.663 2.29793 17.4126 2.55186 17.4126 2.85831C17.4126 3.12099 17.5853 3.33988 17.8271 3.40117V7.4639V7.47265C17.8184 7.52519 17.8443 7.57772 17.8961 7.60399L23.241 10.7386C23.3101 10.7736 23.3878 10.7561 23.431 10.6861C23.4655 10.616 23.4482 10.5372 23.3792 10.4934L18.1034 7.40261V3.39242C18.3365 3.33988 18.5178 3.12099 18.5178 2.85831Z" fill="url(#paint2_linear)"></path><path d="M22.9391 12.945C22.896 12.945 22.8442 12.9713 22.8183 13.0151C22.7837 13.0851 22.801 13.1639 22.8701 13.2077L25.2273 14.5911C25.2964 14.6262 25.3741 14.6086 25.4173 14.5386C25.4518 14.4686 25.4346 14.3897 25.3655 14.346L23.0082 12.9626C22.991 12.9538 22.9651 12.945 22.9391 12.945Z" fill="url(#paint3_linear)"></path><path d="M27.6187 12.875C27.6187 12.8575 27.6101 12.84 27.6015 12.8225C27.5928 12.805 27.5756 12.7875 27.5669 12.7787C27.5583 12.7787 27.5583 12.7699 27.5497 12.7699L25.0024 11.2815C24.9852 11.2727 24.9592 11.2639 24.9333 11.2639C24.8902 11.2639 24.8384 11.2902 24.8125 11.334C24.7779 11.404 24.7952 11.4828 24.8643 11.5266L27.3424 12.9801V18.47C27.1007 18.5313 26.928 18.7502 26.928 19.0129C26.928 19.3193 27.1784 19.5732 27.4806 19.5732C27.7828 19.5732 28.0332 19.3193 28.0332 19.0129C28.0332 18.7502 27.8605 18.5313 27.6187 18.47V12.9013C27.6187 12.8925 27.6187 12.8838 27.6187 12.875Z" fill="url(#paint4_linear)"></path><path d="M23.2581 8.00663L26.9537 10.1693C26.9364 10.2306 26.9192 10.2832 26.9192 10.3532C26.9192 10.6597 27.1696 10.9136 27.4718 10.9136C27.774 10.9136 28.0244 10.6597 28.0244 10.3532C28.0244 10.0467 27.774 9.79282 27.4718 9.79282C27.325 9.79282 27.1955 9.84536 27.1005 9.94167L23.4308 7.78773V0.283954C23.4308 0.205151 23.3703 0.143862 23.2926 0.143862C23.2149 0.143862 23.1544 0.205151 23.1544 0.283954V7.87529C23.1544 7.93658 23.1976 7.98912 23.2581 8.00663Z" fill="url(#paint5_linear)"></path><path d="M19.9561 1.17357L25.275 4.29065V8.43216C25.0333 8.49346 24.8606 8.71235 24.8606 8.97503C24.8606 9.28148 25.111 9.5354 25.4132 9.5354C25.7154 9.5354 25.9658 9.28148 25.9658 8.97503C25.9658 8.71235 25.7931 8.49346 25.5514 8.43216V4.2206C25.5514 4.21184 25.5514 4.21184 25.5514 4.20309C25.5514 4.18558 25.5427 4.16807 25.5341 4.15055C25.5254 4.13304 25.5082 4.11553 25.4995 4.10678C25.4909 4.10678 25.4909 4.09802 25.4823 4.09802L20.0942 0.945913C20.0769 0.937158 20.051 0.9284 20.0251 0.9284C19.982 0.9284 19.9302 0.954669 19.9043 0.998448C19.8697 1.04223 19.887 1.12979 19.9561 1.17357Z" fill="url(#paint6_linear)"></path><path d="M24.9331 19.9409C25.0108 19.9409 25.0713 19.8796 25.0713 19.8008V17.0953C25.0713 17.0865 25.0713 17.0865 25.0713 17.0778C25.0713 17.0602 25.0627 17.034 25.054 17.0252C25.0454 17.0077 25.0281 16.9902 25.0195 16.9814C25.0108 16.9814 25.0108 16.9727 25.0022 16.9727L22.9212 15.7556C22.9385 15.7118 22.9385 15.6593 22.9385 15.6068C22.9385 15.3003 22.6881 15.0464 22.3859 15.0464C22.0837 15.0464 21.8333 15.3003 21.8333 15.6068C21.8333 15.9132 22.0837 16.1671 22.3859 16.1671C22.5413 16.1671 22.6795 16.1059 22.7831 16.0008L24.795 17.1741V19.8008C24.795 19.8796 24.8554 19.9409 24.9331 19.9409Z" fill="url(#paint7_linear)"></path><path d="M7.13293 12.4895C7.43514 12.4895 7.68555 12.2356 7.68555 11.9291C7.68555 11.6227 7.43514 11.3687 7.13293 11.3687C6.83071 11.3687 6.5803 11.6227 6.5803 11.9291C6.5803 11.9904 6.58894 12.0517 6.61484 12.113L2.91919 14.2757C2.85875 14.2932 2.81557 14.3457 2.81557 14.407V21.9983C2.81557 22.0771 2.87602 22.1384 2.95373 22.1384C3.03144 22.1384 3.09188 22.0771 3.09188 21.9983V14.4946L6.77027 12.3406C6.86525 12.437 6.99477 12.4895 7.13293 12.4895Z" fill="url(#paint8_linear)"></path><path d="M7.41563 4.50464C7.71785 4.50464 7.96826 4.25072 7.96826 3.94426C7.96826 3.89173 7.95962 3.83919 7.95099 3.79541L12.0007 1.42258C12.0784 1.43133 12.1475 1.36129 12.1475 1.28249V1.23041C12.1475 1.15161 12.1388 0.925527 12.0007 0.681234C11.8942 0.928566 11.8712 1.15161 11.8712 1.23041V1.16866L7.82147 3.5415C7.71785 3.43642 7.57969 3.37513 7.42427 3.37513C7.12205 3.37513 6.87165 3.62905 6.87165 3.93551C6.87165 4.25072 7.11342 4.50464 7.41563 4.50464Z" fill="url(#paint9_linear)"></path><path d="M5.12804 11.3691C5.43026 11.3691 5.68066 11.1152 5.68066 10.8087C5.68066 10.5023 5.43026 10.2483 5.12804 10.2483C4.82583 10.2483 4.57542 10.5023 4.57542 10.8087C4.57542 10.8613 4.58405 10.905 4.59269 10.9576L1.06972 13.0239C1.00064 13.059 0.983369 13.1465 1.01791 13.2166C1.05245 13.2866 1.13879 13.3041 1.20787 13.2691L4.73084 11.2027C4.83446 11.299 4.97262 11.3691 5.12804 11.3691Z" fill="url(#paint10_linear)"></path><path d="M9.64314 17.0166C9.94536 17.0166 10.1958 16.7627 10.1958 16.4562C10.1958 16.4037 10.1871 16.3512 10.1785 16.3074L12.0781 15.1954C12.0868 15.1954 12.0868 15.1866 12.0954 15.1866C12.1127 15.1779 12.1213 15.1604 12.1386 15.1428C12.1472 15.1253 12.1558 15.1078 12.1558 15.0903C12.1558 15.0816 12.1558 15.0816 12.1558 15.0728V10.117C12.3976 10.0557 12.5703 9.8368 12.5703 9.57412C12.5703 9.26767 12.3199 9.01375 12.0177 9.01375C11.7155 9.01375 11.4651 9.26767 11.4651 9.57412C11.4651 9.8368 11.6378 10.0557 11.8795 10.117V15.0028L10.049 16.071C9.94536 15.9659 9.8072 15.9046 9.65178 15.9046C9.34956 15.9046 9.09916 16.1585 9.09916 16.465C9.09052 16.7714 9.34093 17.0166 9.64314 17.0166Z" fill="url(#paint11_linear)"></path><path d="M9.64367 5.17863C9.56596 5.17863 9.50551 5.23992 9.50551 5.31872V13.1289C9.26374 13.1902 9.09105 13.4091 9.09105 13.6718C9.09105 13.9783 9.34145 14.2322 9.64367 14.2322C9.94588 14.2322 10.1963 13.9783 10.1963 13.6718C10.1963 13.4091 10.0236 13.1902 9.78182 13.1289V5.31872C9.78182 5.23992 9.72138 5.17863 9.64367 5.17863Z" fill="url(#paint12_linear)"></path><path d="M1.20787 7.68285L4.73084 5.61647C4.83446 5.72154 4.97262 5.79159 5.12804 5.79159C5.43026 5.79159 5.68066 5.53767 5.68066 5.23121C5.68066 4.92476 5.43026 4.67084 5.12804 4.67084C4.82583 4.67084 4.57542 4.92476 4.57542 5.23121C4.57542 5.28375 4.58405 5.32753 4.59269 5.38006L1.06972 7.44644C1.00064 7.48147 0.983369 7.56902 1.01791 7.63907C1.06108 7.70036 1.14743 7.72663 1.20787 7.68285Z" fill="url(#paint13_linear)"></path><path d="M7.52781 6.755C7.51917 6.73749 7.5019 6.72873 7.48463 6.71122C7.46737 6.70247 7.4501 6.69371 7.43283 6.69371C7.42419 6.69371 7.42419 6.69371 7.41556 6.69371C7.40692 6.69371 7.38965 6.69371 7.38102 6.70247C7.37238 6.70247 7.35511 6.71122 7.34648 6.71998L3.65947 8.87391C3.55585 8.76009 3.40906 8.69004 3.25363 8.69004C2.95142 8.69004 2.70101 8.94396 2.70101 9.25042C2.70101 9.55687 2.95142 9.81079 3.25363 9.81079C3.55585 9.81079 3.80625 9.55687 3.80625 9.25042C3.80625 9.20664 3.79762 9.16286 3.78899 9.11908L7.2774 7.07897V9.54812C7.2774 9.62692 7.33785 9.68821 7.41556 9.68821C7.49327 9.68821 7.55371 9.62692 7.55371 9.54812V6.84256C7.55371 6.8338 7.55371 6.81629 7.54508 6.80753C7.54508 6.78127 7.53644 6.77251 7.52781 6.755Z" fill="url(#paint14_linear)"></path><path d="M7.50206 17.8309C7.51933 17.8221 7.52796 17.8046 7.54523 17.7871C7.55387 17.7696 7.5625 17.7521 7.5625 17.7345C7.5625 17.7258 7.5625 17.7258 7.5625 17.717V14.9502C7.5625 14.9414 7.5625 14.9239 7.55386 14.9152C7.54523 14.8976 7.54523 14.8801 7.5366 14.8714C7.52796 14.8539 7.51069 14.8451 7.49342 14.8276C7.47615 14.8188 7.45888 14.8101 7.44161 14.8101C7.43298 14.8101 7.43298 14.8101 7.42434 14.8101C7.41571 14.8101 7.39844 14.8101 7.38981 14.8188C7.38117 14.8188 7.3639 14.8276 7.35527 14.8364L5.45564 15.9483C5.35202 15.8433 5.21386 15.782 5.05844 15.782C4.75622 15.782 4.50582 16.0359 4.50582 16.3424C4.50582 16.6488 4.75622 16.9027 5.05844 16.9027C5.36065 16.9027 5.61106 16.6488 5.61106 16.3424C5.61106 16.2898 5.60243 16.2373 5.59379 16.1935L7.28619 15.2041V17.6557L4.98936 18.9954C4.92029 19.0304 4.90302 19.118 4.93755 19.188C4.97209 19.2581 5.05844 19.2756 5.12752 19.2405L7.48479 17.8571C7.49342 17.8396 7.49342 17.8396 7.50206 17.8309Z" fill="url(#paint15_linear)"></path><path d="M17.4234 3.80408C17.3975 3.80408 17.3802 3.81284 17.3543 3.82159L14.8071 5.31009C14.7984 5.31009 14.7984 5.31884 14.7898 5.31884C14.7725 5.3276 14.7639 5.34511 14.7553 5.36262C14.7466 5.38013 14.738 5.39765 14.738 5.41516C14.738 5.42391 14.738 5.42391 14.738 5.43267V8.13823C14.738 8.21703 14.7984 8.27832 14.8761 8.27832C14.9539 8.27832 15.0143 8.21703 15.0143 8.13823V5.51147L17.4924 4.058C17.5615 4.02298 17.5788 3.93542 17.5443 3.86537C17.5184 3.83035 17.4665 3.80408 17.4234 3.80408Z" fill="url(#paint16_linear)"></path><path d="M17.3462 0.651952C17.3203 0.651952 17.303 0.660708 17.2771 0.669464L11.8891 3.82157C11.8805 3.82157 11.8805 3.83032 11.8718 3.83032C11.8545 3.83908 11.8459 3.85659 11.8373 3.8741C11.8286 3.89161 11.82 3.90913 11.82 3.92664C11.82 3.93539 11.82 3.9354 11.82 3.94415V6.20316C11.5782 6.26445 11.4055 6.48335 11.4055 6.74602C11.4055 7.05248 11.6559 7.3064 11.9582 7.3064C12.2604 7.3064 12.5108 7.05248 12.5108 6.74602C12.5108 6.48335 12.3381 6.26445 12.0963 6.20316V4.02295L17.4153 0.90587C17.4844 0.870847 17.5016 0.78329 17.4671 0.713243C17.4412 0.67822 17.398 0.651952 17.3462 0.651952Z" fill="url(#paint17_linear)"></path><path d="M14.8761 15.9309C14.9538 15.9309 15.0142 15.8696 15.0142 15.7908V10.87C15.256 10.8087 15.4287 10.5898 15.4287 10.3272C15.4287 10.0207 15.1783 9.76679 14.8761 9.76679C14.5739 9.76679 14.3235 10.0207 14.3235 10.3272C14.3235 10.5898 14.4962 10.8087 14.7379 10.87V15.7908C14.7379 15.8609 14.7984 15.9309 14.8761 15.9309Z" fill="url(#paint18_linear)"></path><path d="M26.9728 6.95972C27.275 6.95972 27.5254 6.7058 27.5254 6.39934C27.5254 6.13667 27.3527 5.91777 27.1109 5.85648V3.33802C27.1109 3.25922 27.0505 3.19793 26.9728 3.19793C26.8951 3.19793 26.8346 3.25922 26.8346 3.33802V5.85648C26.5928 5.91777 26.4201 6.13667 26.4201 6.39934C26.4201 6.7058 26.6619 6.95972 26.9728 6.95972Z" fill="url(#paint19_linear)"></path><path opacity="0.3" d="M22.4981 20.2611C18.3303 17.3788 11.6255 17.3788 7.54832 20.2611C5.55502 21.6558 4.37716 23.5154 4.46777 25.5609C4.46777 27.6065 5.55502 29.466 7.63892 30.8607C7.91074 31.0467 8.18255 31.2326 8.54497 31.4186C8.81678 31.4186 9.1792 31.4186 9.45101 31.4186C8.90739 31.1397 8.36376 30.8607 7.82013 30.4888C5.82683 29.0941 4.83018 27.3275 4.83018 25.4679C4.83018 23.6084 5.91744 21.8418 7.82013 20.5401C9.81343 19.1454 12.441 18.4945 15.0685 18.4945C17.696 18.4945 20.3236 19.1454 22.4075 20.5401C24.3102 21.8418 25.3974 23.6084 25.3974 25.4679C25.3974 27.3275 24.3102 29.0941 22.4075 30.3958C21.592 30.9537 20.5954 31.4186 19.5987 31.7905C19.7799 31.7905 19.9611 31.7905 20.1424 31.7905C20.3236 31.7905 20.4142 31.7905 20.5048 31.8835C21.2296 31.6045 21.9544 31.2326 22.5887 30.7677C24.582 29.3731 25.6692 27.5135 25.6692 25.4679C25.6692 23.5154 24.582 21.6558 22.4981 20.2611Z" fill="url(#paint20_linear)"></path><path opacity="0.7" d="M15.0656 30.0627C13.2423 30.0627 11.419 29.6436 10.01 28.8054C8.51823 27.9672 7.68945 26.7099 7.68945 25.4526C7.68945 24.1953 8.51823 22.938 10.01 22.0998C12.8279 20.4234 17.3033 20.4234 20.1211 22.0998C21.6129 22.938 22.4417 24.1953 22.4417 25.4526C22.4417 26.7099 21.6129 27.8834 20.1211 28.8054C18.7122 29.6436 16.8889 30.0627 15.0656 30.0627ZM15.0656 22.2675C13.4909 22.2675 11.9162 22.6027 10.6731 23.3571C9.59564 23.9439 9.09837 24.6982 9.09837 25.5364C9.09837 26.2908 9.67852 27.129 10.7559 27.7157C13.1594 29.1407 17.1375 29.1407 19.541 27.7157C20.6184 27.129 21.1156 26.3746 21.1156 25.5364C21.1156 24.782 20.5355 23.9439 19.4581 23.3571C18.2149 22.6027 16.6402 22.2675 15.0656 22.2675Z" fill="url(#paint21_linear)"></path><path opacity="0.7" d="M15.0662 28.1773C13.8127 28.1773 12.5591 27.9468 11.5905 27.4858C10.5649 27.0248 9.99512 26.3333 9.99512 25.6417C9.99512 24.9502 10.5649 24.2587 11.5905 23.7977C13.5278 22.8757 16.6046 22.8757 18.5419 23.7977C19.5675 24.2587 20.1373 24.9502 20.1373 25.6417C20.1373 26.3333 19.5675 26.9787 18.5419 27.4858C17.5732 27.9468 16.3197 28.1773 15.0662 28.1773ZM15.0662 23.8899C13.9836 23.8899 12.901 24.0743 12.0463 24.4892C11.3056 24.8119 10.9638 25.2268 10.9638 25.6878C10.9638 26.1027 11.3626 26.5638 12.1033 26.8865C13.7557 27.6702 16.4907 27.6702 18.143 26.8865C18.8838 26.5638 19.2256 26.1488 19.2256 25.6878C19.2256 25.2729 18.8268 24.8119 18.0861 24.4892C17.2314 24.0743 16.1488 23.8899 15.0662 23.8899Z" fill="url(#paint22_linear)"></path><path opacity="0.4" d="M24.0088 28.5202C24.101 28.428 24.2854 28.3358 24.3776 28.2436C25.484 27.2294 26.0372 25.8463 26.0372 24.2789L26.0372 22.4349L25.945 2.74402L24.0088 1.83618L24.0088 28.5202Z" fill="url(#paint23_linear)"></path><path opacity="0.4" d="M4.52909 20.7583L4.52909 25.3896C4.6236 26.6183 5.37974 27.9416 6.70297 28.9812L6.70297 12.4408L6.70297 1.38232L4.43457 2.13846L4.52909 20.7583Z" fill="url(#paint24_linear)"></path><path opacity="0.7" d="M15.072 26.9319C14.2865 26.9319 13.5011 26.8163 12.8942 26.5852C12.2515 26.3541 11.8945 26.0075 11.8945 25.6609C11.8945 25.3142 12.2515 24.9676 12.8942 24.7365C14.108 24.2743 16.0359 24.2743 17.2498 24.7365C17.8924 24.9676 18.2494 25.3142 18.2494 25.6609C18.2494 26.0075 17.8924 26.331 17.2498 26.5852C16.6429 26.8163 15.8574 26.9319 15.072 26.9319Z" fill="url(#paint25_linear)"></path><path d="M15.5104 14.3464L15.4262 2.72068L25.3983 8.48684L25.4535 20.0214L15.5104 14.3464Z" fill="url(#paint26_linear)"></path><path d="M15.5103 14.3465L5.5934 20.1149L5.50919 8.48916L15.4261 2.72078L15.5103 14.3465Z" fill="url(#paint27_linear)"></path><path d="M15.5106 14.3463L25.4537 20.0212L15.5368 25.7896L5.59373 20.1147L15.5106 14.3463Z" fill="url(#paint28_linear)"></path><path d="M5.50669 19.8408C5.53572 19.932 5.56476 20.0232 5.59379 20.1144C5.62282 20.2056 5.74307 20.2678 5.83428 20.2388L6.31526 20.4875L7.27722 20.9849L9.13895 22.1L12.9246 24.21L15.5078 25.6982L20.3585 22.9488L24.0815 20.7592L25.0267 20.2574L25.2713 20.0791L25.3626 20.05C25.3626 20.05 25.4538 20.021 25.4247 19.9298L25.4579 19.7183L25.462 19.4157L25.4908 17.297L25.4567 8.6689C25.4276 8.57769 25.4898 8.45744 25.3986 8.48648L25.3696 8.39527L25.2493 8.33309L24.7683 8.08437L23.8064 7.58694L21.9446 6.47184L18.2502 4.33285L16.3885 3.21774L15.696 2.93588C15.5758 2.8737 15.5758 2.8737 15.4555 2.81152C15.3643 2.84056 15.2441 2.77838 15.2441 2.77838C14.9083 2.98572 14.6637 3.16403 14.2988 3.28017L10.5758 5.46974L6.85283 7.65931L5.9366 8.25231L5.692 8.43062C5.60079 8.45965 5.50958 8.48869 5.53861 8.5799C5.4474 8.60893 5.47643 8.70014 5.50546 8.79136L5.50135 9.09402L5.47256 11.2127L5.50669 19.8408ZM5.50669 19.8408L5.47256 11.2127L5.50135 9.09402L5.50546 8.79136L5.47643 8.70014C5.47643 8.70014 5.4474 8.60893 5.53861 8.5799L5.60079 8.45965L5.692 8.43062L5.9366 8.25231L6.88187 7.75052L10.6049 5.56095L14.3278 3.37138C14.6637 3.16403 14.9083 2.98572 15.2731 2.86959C15.3643 2.84056 15.4555 2.81152 15.5758 2.8737C15.6379 2.75346 15.667 2.84467 15.7872 2.90685L16.2682 3.15556L18.1009 4.17946L21.7954 6.31845L23.6571 7.43355L24.6191 7.93098L25.1 8.1797L25.2203 8.24188L25.2493 8.33309C25.2493 8.33309 25.2493 8.33309 25.3696 8.39527C25.3986 8.48648 25.3986 8.48648 25.4276 8.57769C25.4567 8.6689 25.4567 8.6689 25.4567 8.6689L25.4908 17.297L25.462 19.4157L25.4579 19.7183L25.4869 19.8096C25.4869 19.8096 25.5159 19.9008 25.4247 19.9298L25.3626 20.05L25.2092 20.1993L24.9646 20.3776L24.0193 20.8794L20.2963 23.069L16.5733 25.2586L15.6281 25.7604C15.5369 25.7894 15.4456 25.8184 15.3254 25.7562L15.0849 25.6319L14.6039 25.3832L12.7422 24.2681L9.04774 22.1291L7.18601 21.014L6.22405 20.5165L5.74307 20.2678C5.62282 20.2056 5.62282 20.2056 5.50258 20.1435C5.56476 20.0232 5.53572 19.932 5.50669 19.8408Z" fill="#FFFA55"></path><path d="M15.4198 14.3749L24.5833 19.4944L15.4819 14.2547L15.3523 3.74839L15.3907 14.2837L7.27314 19.0775L15.4198 14.3749Z" fill="url(#paint29_radial)"></path><mask id="mask0" style="mask-type:alpha" maskUnits="userSpaceOnUse" x="7" y="3" width="18" height="17"><path d="M15.4198 14.3749L24.5833 19.4944L15.4819 14.2547L15.3523 3.74839L15.3907 14.2837L7.27314 19.0775L15.4198 14.3749Z" fill="url(#paint30_radial)"></path></mask><g mask="url(#mask0)"><path d="M15.4198 14.3749L24.5833 19.4944L15.4819 14.2547L15.3523 3.74839L15.3907 14.2837L7.27314 19.0775L15.4198 14.3749Z" fill="url(#paint31_radial)"></path></g><path opacity="0.6" d="M10.5326 10.2327L10.319 6.8568L7.89883 13.1158L10.5326 10.2327Z" fill="url(#paint32_linear)" stroke="white" stroke-width="0.191442" stroke-linejoin="round"></path><path opacity="0.6" d="M10.5211 13.5734L7.86035 13.667L10.6857 15.781L10.5211 13.5734Z" fill="url(#paint33_linear)" stroke="white" stroke-width="0.191442" stroke-linejoin="round"></path><path d="M10.5334 10.2325L10.3198 6.85663L13.1985 9.81465L10.5334 10.2325Z" fill="url(#paint34_linear)" stroke="white" stroke-width="0.191442" stroke-linejoin="round"></path><path d="M10.5337 10.2324L13.1988 9.81453L10.5607 13.0219L10.5337 10.2324Z" fill="url(#paint35_linear)" stroke="white" stroke-width="0.191442" stroke-linejoin="round"></path><path opacity="0.6" d="M10.5333 10.2326L10.5603 13.0221L7.89958 13.1157L10.5333 10.2326Z" fill="url(#paint36_linear)" stroke="white" stroke-width="0.191442" stroke-linejoin="round"></path><path d="M10.5207 13.5729L13.0792 10.4984L10.6853 15.7805L10.5207 13.5729Z" fill="url(#paint37_linear)" stroke="white" stroke-width="0.191442" stroke-linejoin="round"></path><path opacity="0.3" d="M15.4439 14.7688L7.94401 18.6628L15.1205 14.0681L15.4304 4.62734L15.846 14.1385L23.7699 19.1503L15.4439 14.7688Z" fill="#FFFFCC"></path><path d="M14.4901 22.173L14.4886 22.2809L14.5959 22.2695L18.8702 21.813L18.9486 21.8046L18.9554 21.7261L19.1707 19.2468L19.1805 19.1344L19.068 19.1431L17.4014 19.2718L17.3174 19.2783L17.3132 19.3624L17.2346 20.9135L14.5888 21.1711L14.5036 21.1794L14.5024 21.2651L14.4901 22.173Z" fill="url(#paint38_linear)" stroke="white" stroke-width="0.191442"></path><path d="M13.5223 20.8022L13.6031 20.7971L13.6115 20.7166L13.777 19.1346L16.4532 18.9653L16.5417 18.9597L16.5429 18.871L16.5552 17.9631L16.5566 17.8575L16.4514 17.8664L12.1481 18.2317L12.0678 18.2386L12.0608 18.3188L11.8455 20.7981L11.8359 20.9089L11.9469 20.9019L13.5223 20.8022Z" fill="url(#paint39_linear)" stroke="white" stroke-width="0.191442"></path><path d="M16.2509 20.5367L16.3312 20.5316L16.34 20.4517L16.4436 19.5147L16.4561 19.4014L16.3424 19.4086L14.767 19.5083L14.6867 19.5134L14.6779 19.5933L14.5743 20.5303L14.5618 20.6435L14.6755 20.6363L16.2509 20.5367Z" fill="url(#paint40_linear)" stroke="white" stroke-width="0.191442"></path><path d="M13.603 21.3224L13.6163 21.2021L13.4961 21.2169L11.9498 21.4078L11.8781 21.4166L11.8669 21.488L11.7344 22.3337L11.7159 22.4516L11.835 22.4441L13.4104 22.3444L13.4906 22.3393L13.4995 22.2594L13.603 21.3224Z" fill="url(#paint41_linear)" stroke="white" stroke-width="0.191442"></path><path d="M19.2824 17.7066L19.2949 17.5933L19.1812 17.6005L17.6058 17.7002L17.5256 17.7053L17.5167 17.7852L17.4132 18.7222L17.4007 18.8354L17.5144 18.8282L19.0898 18.7286L19.1701 18.7235L19.1789 18.6435L19.2824 17.7066Z" fill="url(#paint42_linear)" stroke="white" stroke-width="0.191442"></path><path d="M22.46 15.3484C22.3398 15.2862 22.0993 15.1618 22.0703 15.0706L20.6108 13.3254C20.4615 13.172 20.4034 12.9896 20.4366 12.7782L20.4448 12.1729L21.2325 12.1231L21.1621 12.8486C21.158 13.1512 21.9955 13.8891 22.1738 14.1337C22.294 14.1959 22.4433 14.3492 22.5635 14.4114L23.3803 14.4528L23.4715 14.4237C23.5627 14.3947 23.4838 13.5158 23.546 13.3956C23.5211 13.0017 22.8038 12.326 22.6255 12.0814C22.385 11.9571 22.2357 11.8037 22.1445 11.8328L19.5119 11.7667C19.3005 11.7336 19.2715 11.6424 18.9439 11.2444C18.4671 10.6931 17.9031 9.86811 17.6336 9.65256C17.5134 9.59038 17.4263 9.31677 17.3973 9.22556L17.48 7.5921C17.422 7.4097 17.4841 7.28946 17.5753 7.26043C17.5753 7.26043 17.5753 7.26043 17.6665 7.2314C17.6665 7.2314 17.7578 7.20237 17.9692 7.23551C18.4833 7.27277 19.3 7.31413 19.3 7.31413C19.3912 7.2851 19.6317 7.40945 19.6897 7.59186L21.029 9.27491C21.1783 9.42829 21.2364 9.6107 21.2032 9.82214L21.2862 10.3984L20.4985 10.4482L20.5067 9.84295C20.4818 9.4491 19.7355 8.6822 19.5572 8.43762C19.4369 8.37545 19.2877 8.22207 19.1674 8.15989L18.2885 8.23876C18.2885 8.23876 18.2762 9.1467 18.214 9.26693C18.2099 9.56958 19.0765 10.3986 19.1345 10.5811C19.1926 10.7635 19.404 10.7966 19.5243 10.8588L22.1569 10.9248C22.3683 10.958 22.5176 11.1113 22.6378 11.1735L24.0683 12.8275C24.4871 13.1965 24.168 14.4029 24.28 15.0704C24.309 15.1616 24.2468 15.2818 24.1556 15.3109L24.0644 15.3399L22.46 15.3484Z" fill="url(#paint43_linear)" stroke="white" stroke-width="0.191442"></path><g clip-path="url(#clip0)"><path opacity="0.4" d="M20.9734 28.7264L20.6708 1.4711L15.5264 1.38232L15.829 28.3713V29.0816C17.6447 28.9928 19.4604 29.2591 20.9734 29.0816V28.7264Z" fill="url(#paint44_linear)"></path></g><path d="M21.4265 29.1282H8.71667C4.4498 29.1282 1 25.6784 1 21.4116V8.70177C1 4.43491 4.4498 0.985107 8.71667 0.985107H21.4265C25.6933 0.985107 29.1431 4.43491 29.1431 8.70177V21.4116C29.1431 25.6784 25.6933 29.1282 21.4265 29.1282Z" stroke="#FCB13C" stroke-width="0.907843"></path><defs><radialGradient id="paint0_radial" cx="0" cy="0" r="1" gradientUnits="userSpaceOnUse" gradientTransform="translate(9.17059 8.24785) rotate(48.2675) scale(21.8214)"><stop stop-color="#E9E902"></stop><stop offset="1" stop-color="#EB9F28"></stop></radialGradient><linearGradient id="paint1_linear" x1="19.3423" y1="14.5823" x2="19.3423" y2="10.1606" gradientUnits="userSpaceOnUse"><stop stop-color="#FFFA55"></stop><stop offset="1" stop-color="#FFFA55" stop-opacity="0"></stop></linearGradient><linearGradient id="paint2_linear" x1="20.4304" y1="10.7561" x2="20.4304" y2="2.29793" gradientUnits="userSpaceOnUse"><stop stop-color="#FFFA55"></stop><stop offset="1" stop-color="#FFFA55" stop-opacity="0"></stop></linearGradient><linearGradient id="paint3_linear" x1="24.1178" y1="14.6086" x2="24.1178" y2="12.945" gradientUnits="userSpaceOnUse"><stop stop-color="#FFFA55"></stop><stop offset="1" stop-color="#FFFA55" stop-opacity="0"></stop></linearGradient><linearGradient id="paint4_linear" x1="26.4142" y1="19.5732" x2="26.4142" y2="11.2639" gradientUnits="userSpaceOnUse"><stop stop-color="#FFFA55"></stop><stop offset="1" stop-color="#FFFA55" stop-opacity="0"></stop></linearGradient><linearGradient id="paint5_linear" x1="25.5894" y1="10.9136" x2="25.5894" y2="0.143862" gradientUnits="userSpaceOnUse"><stop stop-color="#FFFA55"></stop><stop offset="1" stop-color="#FFFA55" stop-opacity="0"></stop></linearGradient><linearGradient id="paint6_linear" x1="18.4485" y1="7.19251" x2="18.4485" y2="-1.41449" gradientUnits="userSpaceOnUse"><stop stop-color="#FFFA55"></stop><stop offset="1" stop-color="#FFFA55" stop-opacity="0"></stop></linearGradient><linearGradient id="paint7_linear" x1="23.4523" y1="19.9409" x2="23.4523" y2="15.0464" gradientUnits="userSpaceOnUse"><stop stop-color="#FFFA55"></stop><stop offset="1" stop-color="#FFFA55" stop-opacity="0"></stop></linearGradient><linearGradient id="paint8_linear" x1="5.25056" y1="22.1384" x2="5.25056" y2="11.3687" gradientUnits="userSpaceOnUse"><stop stop-color="#FFFA55"></stop><stop offset="1" stop-color="#FFFA55" stop-opacity="0"></stop></linearGradient><linearGradient id="paint9_linear" x1="9.50955" y1="4.50464" x2="9.50955" y2="-1.63321" gradientUnits="userSpaceOnUse"><stop stop-color="#FFFA55"></stop><stop offset="1" stop-color="#FFFA55" stop-opacity="0"></stop></linearGradient><linearGradient id="paint10_linear" x1="3.34065" y1="13.2866" x2="3.34065" y2="10.2483" gradientUnits="userSpaceOnUse"><stop stop-color="#FFFA55"></stop><stop offset="1" stop-color="#FFFA55" stop-opacity="0"></stop></linearGradient><linearGradient id="paint11_linear" x1="10.8346" y1="17.0166" x2="10.8346" y2="9.01375" gradientUnits="userSpaceOnUse"><stop stop-color="#FFFA55"></stop><stop offset="1" stop-color="#FFFA55" stop-opacity="0"></stop></linearGradient><linearGradient id="paint12_linear" x1="9.64367" y1="14.2322" x2="9.64367" y2="5.17863" gradientUnits="userSpaceOnUse"><stop stop-color="#FFFA55"></stop><stop offset="1" stop-color="#FFFA55" stop-opacity="0"></stop></linearGradient><linearGradient id="paint13_linear" x1="3.34065" y1="7.70459" x2="3.34065" y2="4.67084" gradientUnits="userSpaceOnUse"><stop stop-color="#FFFA55"></stop><stop offset="1" stop-color="#FFFA55" stop-opacity="0"></stop></linearGradient><linearGradient id="paint14_linear" x1="5.12736" y1="9.81079" x2="5.12736" y2="6.69371" gradientUnits="userSpaceOnUse"><stop stop-color="#FFFA55"></stop><stop offset="1" stop-color="#FFFA55" stop-opacity="0"></stop></linearGradient><linearGradient id="paint15_linear" x1="6.03416" y1="19.2581" x2="6.03416" y2="14.8101" gradientUnits="userSpaceOnUse"><stop stop-color="#FFFA55"></stop><stop offset="1" stop-color="#FFFA55" stop-opacity="0"></stop></linearGradient><linearGradient id="paint16_linear" x1="16.1498" y1="8.27832" x2="16.1498" y2="3.80408" gradientUnits="userSpaceOnUse"><stop stop-color="#FFFA55"></stop><stop offset="1" stop-color="#FFFA55" stop-opacity="0"></stop></linearGradient><linearGradient id="paint17_linear" x1="14.445" y1="7.3064" x2="14.445" y2="0.651951" gradientUnits="userSpaceOnUse"><stop stop-color="#FFFA55"></stop><stop offset="1" stop-color="#FFFA55" stop-opacity="0"></stop></linearGradient><linearGradient id="paint18_linear" x1="14.8761" y1="15.9309" x2="14.8761" y2="9.76679" gradientUnits="userSpaceOnUse"><stop stop-color="#FFFA55"></stop><stop offset="1" stop-color="#FFFA55" stop-opacity="0"></stop></linearGradient><linearGradient id="paint19_linear" x1="26.9728" y1="6.95972" x2="26.9728" y2="1.38224" gradientUnits="userSpaceOnUse"><stop stop-color="#FFFA55"></stop><stop offset="1" stop-color="#FFFA55" stop-opacity="0"></stop></linearGradient><linearGradient id="paint20_linear" x1="15.0661" y1="18.0994" x2="15.0661" y2="31.8835" gradientUnits="userSpaceOnUse"><stop stop-color="#FFFA55"></stop><stop offset="1" stop-color="#FFFA55" stop-opacity="0"></stop></linearGradient><linearGradient id="paint21_linear" x1="15.0656" y1="20.8425" x2="15.0656" y2="30.0627" gradientUnits="userSpaceOnUse"><stop stop-color="#FFFA55"></stop><stop offset="1" stop-color="#FFFA55" stop-opacity="0"></stop></linearGradient><linearGradient id="paint22_linear" x1="15.0662" y1="23.1062" x2="15.0662" y2="28.1773" gradientUnits="userSpaceOnUse"><stop stop-color="#FFFA55"></stop><stop offset="1" stop-color="#FFFA55" stop-opacity="0.14"></stop></linearGradient><linearGradient id="paint23_linear" x1="25.0926" y1="32.7619" x2="24.8958" y2="1.58972" gradientUnits="userSpaceOnUse"><stop stop-color="#FFFF99"></stop><stop offset="0.6263" stop-color="#FFFF99"></stop><stop offset="1" stop-color="white"></stop></linearGradient><linearGradient id="paint24_linear" x1="5.72536" y1="33.4389" x2="5.524" y2="1.54422" gradientUnits="userSpaceOnUse"><stop stop-color="#FFFF99"></stop><stop offset="0.6263" stop-color="#FFFF99"></stop><stop offset="1" stop-color="white"></stop></linearGradient><linearGradient id="paint25_linear" x1="15.072" y1="24.3899" x2="15.072" y2="26.9319" gradientUnits="userSpaceOnUse"><stop stop-color="#FFFA55"></stop><stop offset="1" stop-color="#FFFA55" stop-opacity="0.17"></stop></linearGradient><linearGradient id="paint26_linear" x1="7.36254" y1="6.53993" x2="32.0918" y2="15.7439" gradientUnits="userSpaceOnUse"><stop stop-color="#7A4ADD"></stop><stop offset="1" stop-color="#D57BFF"></stop></linearGradient><linearGradient id="paint27_linear" x1="4.64096" y1="6.95314" x2="14.9712" y2="14.8767" gradientUnits="userSpaceOnUse"><stop stop-color="#AB42CB"></stop><stop offset="0.5973" stop-color="#6EB3EA"></stop><stop offset="1" stop-color="#45FFFF"></stop></linearGradient><linearGradient id="paint28_linear" x1="16.5286" y1="24.418" x2="14.4032" y2="15.4665" gradientUnits="userSpaceOnUse"><stop stop-color="#FFF617"></stop><stop offset="1" stop-color="#EFBA14"></stop></linearGradient><radialGradient id="paint29_radial" cx="0" cy="0" r="1" gradientUnits="userSpaceOnUse" gradientTransform="translate(15.6984 14.4932) rotate(59.7637) scale(9.80361)"><stop stop-color="white"></stop><stop offset="0.1909" stop-color="#FCFCFC"></stop><stop offset="0.3245" stop-color="#F3F3F3"></stop><stop offset="0.4406" stop-color="#E4E4E4"></stop><stop offset="0.5467" stop-color="#CECECE"></stop><stop offset="0.6461" stop-color="#B1B1B1"></stop><stop offset="0.7404" stop-color="#8E8E8E"></stop><stop offset="0.8308" stop-color="#656565"></stop><stop offset="0.9157" stop-color="#363636"></stop><stop offset="0.9977" stop-color="#020202"></stop><stop offset="1"></stop></radialGradient><radialGradient id="paint30_radial" cx="0" cy="0" r="1" gradientUnits="userSpaceOnUse" gradientTransform="translate(15.6984 14.4932) rotate(59.7637) scale(9.80361)"><stop stop-color="white"></stop><stop offset="0.1909" stop-color="#FCFCFC"></stop><stop offset="0.3245" stop-color="#F3F3F3"></stop><stop offset="0.4406" stop-color="#E4E4E4"></stop><stop offset="0.5467" stop-color="#CECECE"></stop><stop offset="0.6461" stop-color="#B1B1B1"></stop><stop offset="0.7404" stop-color="#8E8E8E"></stop><stop offset="0.8308" stop-color="#656565"></stop><stop offset="0.9157" stop-color="#363636"></stop><stop offset="0.9977" stop-color="#020202"></stop><stop offset="1"></stop></radialGradient><radialGradient id="paint31_radial" cx="0" cy="0" r="1" gradientUnits="userSpaceOnUse" gradientTransform="translate(15.6984 14.4932) rotate(59.7637) scale(9.80361)"><stop stop-color="#FFFF99"></stop><stop offset="0.8807" stop-color="#FFFF99"></stop><stop offset="1" stop-color="#FFFF99"></stop></radialGradient><linearGradient id="paint32_linear" x1="9.01364" y1="7.68564" x2="11.153" y2="11.0234" gradientUnits="userSpaceOnUse"><stop stop-color="#F2F6FF"></stop><stop offset="1" stop-color="#F2F6FF" stop-opacity="0"></stop></linearGradient><linearGradient id="paint33_linear" x1="9.19882" y1="12.811" x2="10.9992" y2="15.6198" gradientUnits="userSpaceOnUse"><stop stop-color="#F2F6FF"></stop><stop offset="1" stop-color="#F2F6FF" stop-opacity="0"></stop></linearGradient><linearGradient id="paint34_linear" x1="11.632" y1="6.00778" x2="13.7678" y2="9.34012" gradientUnits="userSpaceOnUse"><stop stop-color="white"></stop><stop offset="1" stop-color="white" stop-opacity="0"></stop></linearGradient><linearGradient id="paint35_linear" x1="11.7738" y1="9.37809" x2="13.084" y2="11.4222" gradientUnits="userSpaceOnUse"><stop stop-color="white"></stop><stop offset="1" stop-color="white" stop-opacity="0"></stop></linearGradient><linearGradient id="paint36_linear" x1="9.17008" y1="11.0469" x2="10.4802" y2="13.091" gradientUnits="userSpaceOnUse"><stop stop-color="#F2F6FF"></stop><stop offset="1" stop-color="#F2F6FF" stop-opacity="0"></stop></linearGradient><linearGradient id="paint37_linear" x1="11.8047" y1="11.177" x2="13.5882" y2="13.9596" gradientUnits="userSpaceOnUse"><stop stop-color="white"></stop><stop offset="1" stop-color="white" stop-opacity="0"></stop></linearGradient><linearGradient id="paint38_linear" x1="16.029" y1="20.3123" x2="17.5021" y2="22.6107" gradientUnits="userSpaceOnUse"><stop stop-color="white"></stop><stop offset="1" stop-color="white" stop-opacity="0.3"></stop></linearGradient><linearGradient id="paint39_linear" x1="12.1731" y1="18.3223" x2="13.6406" y2="20.6118" gradientUnits="userSpaceOnUse"><stop stop-color="white"></stop><stop offset="1" stop-color="white" stop-opacity="0.3"></stop></linearGradient><linearGradient id="paint40_linear" x1="14.7388" y1="19.6489" x2="15.5375" y2="20.895" gradientUnits="userSpaceOnUse"><stop stop-color="white"></stop><stop offset="1" stop-color="white" stop-opacity="0.3"></stop></linearGradient><linearGradient id="paint41_linear" x1="11.9142" y1="21.4698" x2="12.6985" y2="22.6935" gradientUnits="userSpaceOnUse"><stop stop-color="white"></stop><stop offset="1" stop-color="white" stop-opacity="0.3"></stop></linearGradient><linearGradient id="paint42_linear" x1="17.5798" y1="17.8239" x2="18.3676" y2="19.0531" gradientUnits="userSpaceOnUse"><stop stop-color="white"></stop><stop offset="1" stop-color="white" stop-opacity="0.3"></stop></linearGradient><linearGradient id="paint43_linear" x1="20.9583" y1="8.27526" x2="18.202" y2="12.7341" gradientUnits="userSpaceOnUse"><stop stop-color="white"></stop><stop offset="1" stop-color="white" stop-opacity="0.3"></stop></linearGradient><linearGradient id="paint44_linear" x1="22.1839" y1="13.6783" x2="16.1316" y2="13.6783" gradientUnits="userSpaceOnUse"><stop stop-color="#FFFF99" stop-opacity="0"></stop><stop offset="0.6263" stop-color="#FFFF99"></stop><stop offset="1" stop-color="white" stop-opacity="0"></stop></linearGradient><clipPath id="clip0"><rect width="21.7882" height="28.1431" fill="white" transform="translate(4.63184 1.32568)"></rect></clipPath></defs></svg>