<svg width="1440" height="1024" viewBox="0 0 1440 1024" fill="none" xmlns="http://www.w3.org/2000/svg">
<g clip-path="url(#clip0_13900_134476)">
<rect width="1440" height="1024" fill="#041836"/>
<g clip-path="url(#clip1_13900_134476)">
<rect width="1920" height="1080" transform="translate(-375 -28)" fill="#041836"/>
<g opacity="0.6" filter="url(#filter0_f_13900_134476)">
<path fill-rule="evenodd" clip-rule="evenodd" d="M1023.44 52.3527C1229.53 56.9541 1368.83 242.778 1427.94 441.883C1482.25 624.816 1439.11 826.371 1287.03 940.182C1130.25 1057.52 916.721 1057.38 757.213 943.839C590.58 825.226 500.963 619.422 559.771 422.499C622.608 212.086 805.544 47.4876 1023.44 52.3527Z" fill="url(#paint0_radial_13900_134476)" fill-opacity="0.5"/>
</g>
</g>
<g style="mix-blend-mode:screen" opacity="0.6" clip-path="url(#clip2_13900_134476)">
<path d="M1097.3 216.644C1109.09 129.587 1187.17 68.4124 1271.51 79.8762C1355.85 91.3401 1414.75 171.157 1402.96 258.215C1391.17 345.272 1313.09 406.446 1228.75 394.982C1144.27 383.604 1085.51 303.701 1097.3 216.644Z" fill="url(#paint1_radial_13900_134476)" fill-opacity="0.2"/>
<path d="M1137.53 118.881C1156.44 -20.776 1281.69 -118.912 1416.99 -100.522C1552.28 -82.1313 1646.78 45.9114 1627.86 185.568C1608.95 325.225 1483.69 423.361 1348.4 404.971C1212.88 386.717 1118.61 258.538 1137.53 118.881Z" fill="url(#paint2_radial_13900_134476)" fill-opacity="0.2"/>
<g style="mix-blend-mode:screen" opacity="0.5">
<path d="M1097.3 216.644C1109.09 129.587 1187.17 68.4124 1271.51 79.8762C1355.85 91.3401 1414.75 171.157 1402.96 258.215C1391.17 345.272 1313.09 406.446 1228.75 394.982C1144.27 383.604 1085.51 303.701 1097.3 216.644Z" fill="url(#paint3_radial_13900_134476)" fill-opacity="0.2"/>
</g>
</g>
<g opacity="0.4">
<path d="M1743.72 773.944C1812.95 633.959 1850.41 477.492 1860.97 321.924C1874.91 99.3937 1837.01 -124.09 1777.85 -339.589C1720.46 -547.801 1641.93 -754.6 1513.41 -928.678C1385.3 -1103.04 1202.9 -1244.2 991.815 -1291.37C620.293 -1374.37 268.766 -1191.39 39.9264 -902.999C-72.5141 -761.093 -1.36363 -535.141 -59.4241 -364.34C-121.673 -180.758 -386.73 -76.342 -478.54 93.7287C-530.272 189.503 -576.695 288.271 -605.914 394.059C-702.014 737.338 -619.877 1071.55 -274.362 1220.08C76.5268 1371.25 557.002 1397.77 929.08 1331.78C1199.96 1283.2 1465.29 1157.41 1636.98 942.543C1679.76 890.357 1714.26 833.349 1743.72 773.944Z" fill="url(#paint4_linear_13900_134476)"/>
<path d="M568.488 1275.89C545.957 1241.15 522.914 1205.21 490.923 1178.07C-137.266 953.407 375.166 303.2 80.4569 -52.2677C68.5733 -67.2805 30.979 -114.692 67.1097 -68.2831C-27.9523 -178.494 -59.0384 -124.152 -128.9 -254.808C-417.467 -14.9786 -527.567 106.295 -605.642 393.556C-857.029 1180.56 3.22237 1402.23 624.99 1363.79C605.861 1334.44 586.699 1305.26 568.488 1275.89Z" fill="url(#paint5_linear_13900_134476)"/>
<path d="M247.01 -967.189C431.883 -924.849 523.636 -900.966 617.711 -731.777C696.278 -590.724 657.828 -459.715 735.254 -382.978C812.856 -306.208 1002.92 -379.399 1089.78 -344.879C1226.17 -300.858 1265.64 -204.014 1365.12 -100.864C1531.47 108.398 1625.65 131.078 1864.62 223.691C1863.22 -794.557 1066.63 -1901.59 95.7847 -968.523C145.292 -974.778 194.369 -976.715 247.01 -967.189Z" fill="url(#paint6_linear_13900_134476)"/>
<path d="M703.164 -1230.87C947.732 -1083.19 958.042 -885.862 1036.54 -643.168C1036.59 -642.427 1037.06 -641.974 1036.78 -641.476C1049.16 -617.214 1064.92 -593.427 1089.87 -580.766C1090.37 -580.49 1090.84 -580.038 1091.61 -580.262C1195.21 -539.175 1311.74 -547.353 1415.1 -498.985C1688.05 -374.097 1765.29 -60.0213 1843.55 201.859C1843.59 202.6 1844.06 203.053 1844.28 203.827C1849.59 213.78 1864.42 210.837 1864.18 199.253C1850.5 -486.265 1450.58 -1465.93 633.352 -1292.28C623.874 -1290.55 621.923 -1276.99 630.919 -1273.13C656.34 -1260.02 680.116 -1245.93 703.164 -1230.87Z" fill="url(#paint7_linear_13900_134476)"/>
<path d="M229.913 1340.01C228.963 1333.24 214.144 1313.29 217.528 1312.81C207.83 1280.99 172.659 1237.32 160.529 1217.68C125.609 1176.62 80.5019 1144.13 30.2409 1123.68C-355.564 955.269 -333.564 735.691 -244.794 379.521C-239.153 296.308 -259.233 203.59 -306.813 135.838C-313.584 124.881 -357.788 98.4125 -318.231 121.277C-359.964 92.3334 -408.454 72.2173 -451.143 45.4784C-872.123 755.961 -589.689 1282.25 233.468 1348.54C232.088 1346.09 230.663 1342.89 229.913 1340.01Z" fill="url(#paint8_linear_13900_134476)"/>
</g>
<path d="M666.615 926.639C715.042 983.527 776.717 1029.57 843.084 1063.63C938.239 1111.83 1043.61 1137.42 1149.5 1152.17C1251.85 1166.32 1357.57 1170.91 1458.37 1147.34C1559.21 1124.01 1655.73 1070.55 1716.37 986.705C1823.09 839.132 1809.14 650.06 1725.67 494.971C1684.57 418.73 1571.83 407.276 1507.75 349.469C1438.84 287.404 1443.07 151.184 1385.69 78.6839C1353.38 37.8426 1318.76 -1.23181 1277.8 -34.073C1145.11 -141.207 982.715 -168.301 852.119 -44.5481C719.347 81.0674 616.846 287.194 575.499 463.18C545.633 591.4 550.745 731.784 612.706 847.855C627.552 876.52 646.079 902.463 666.615 926.639Z" fill="url(#paint9_linear_13900_134476)"/>
<path d="M668.235 315.286C687.763 311.954 707.912 308.622 725.889 299.696C943.386 66.1174 1132.23 414.237 1344.16 351.936C1353 349.552 1380.95 341.996 1353.72 349.099C1420.13 328.162 1402.12 304.226 1472.75 298.229C1421.92 126.075 1389.44 54.7631 1277.96 -33.8586C979.649 -293.127 719.59 42.9961 618.926 323.497C635.442 320.641 651.887 317.737 668.235 315.286Z" fill="url(#paint10_linear_13900_134476)"/>
<path d="M1714.73 598.111C1661.17 671.347 1633.33 707.152 1541.19 716.505C1464.35 724.362 1414.05 682.696 1365.69 702.211C1317.28 721.799 1313.51 819.159 1281.92 850.803C1236.78 902.417 1186.76 901.451 1122.63 925.664C999.215 959.204 971.443 996.299 885.562 1083.8C1333.29 1275.71 1970.38 1134.96 1743.91 531.908C1737.3 554.846 1728.87 576.779 1714.73 598.111Z" fill="url(#paint11_linear_13900_134476)"/>
<path d="M1744.36 848.42C1633.22 927.974 1544.56 895.195 1423.06 883.807C1422.73 883.687 1422.44 883.807 1422.27 883.591C1409.27 884.443 1395.84 886.871 1385.56 895.444C1385.34 895.611 1385.06 895.73 1385.01 896.113C1347.37 933.87 1328.93 986.626 1288.13 1022.9C1181.64 1119.23 1029.02 1093.8 899.141 1078.67C898.806 1078.55 898.519 1078.67 898.137 1078.62C892.759 1079.08 891.249 1086.15 896.386 1088.23C1200.22 1211.83 1706.34 1221.31 1784.54 829.353C1785.58 824.861 1779.99 821.439 1776.59 824.663C1766.02 833.355 1755.33 841.139 1744.36 848.42Z" fill="url(#paint12_linear_13900_134476)"/>
<path d="M704.073 154.379C707.227 155.241 718.796 152.501 718.365 154.078C734.185 155.833 760.024 148.634 770.947 147.016C795.592 139.433 818.401 125.755 836.887 107.533C983.839 -30.1651 1076.17 21.0181 1215.91 127.368C1251.41 145.58 1295.95 154.286 1334.72 146.187C1340.81 145.283 1360.8 130.862 1343.28 143.922C1363.88 131.055 1381.89 113.55 1401.71 99.8459C1169.09 -219.482 884.415 -194.872 699.652 154.328C700.991 154.185 702.663 154.162 704.073 154.379Z" fill="url(#paint13_linear_13900_134476)"/>
</g>
<defs>
<filter id="filter0_f_13900_134476" x="281.697" y="-207.752" width="1428.7" height="1496.35" filterUnits="userSpaceOnUse" color-interpolation-filters="sRGB">
<feFlood flood-opacity="0" result="BackgroundImageFix"/>
<feBlend mode="normal" in="SourceGraphic" in2="BackgroundImageFix" result="shape"/>
<feGaussianBlur stdDeviation="130" result="effect1_foregroundBlur_13900_134476"/>
</filter>
<radialGradient id="paint0_radial_13900_134476" cx="0" cy="0" r="1" gradientUnits="userSpaceOnUse" gradientTransform="translate(996.048 540.421) scale(454.351 488.173)">
<stop offset="0.171875" stop-color="#56FFE1"/>
<stop offset="1" stop-color="#10D4FF"/>
</radialGradient>
<radialGradient id="paint1_radial_13900_134476" cx="0" cy="0" r="1" gradientUnits="userSpaceOnUse" gradientTransform="translate(1250.57 236.88) rotate(-172.26) scale(136.573 140.801)">
<stop offset="0.559" stop-color="#94E2CA"/>
<stop offset="0.5695" stop-color="#5D8F7F" stop-opacity="0.9605"/>
<stop offset="0.6111" stop-color="#416459" stop-opacity="0.803"/>
<stop offset="0.6533" stop-color="#294039" stop-opacity="0.6433"/>
<stop offset="0.6955" stop-color="#172420" stop-opacity="0.4834"/>
<stop offset="0.7379" stop-color="#0A100E" stop-opacity="0.3233"/>
<stop offset="0.7803" stop-color="#030404" stop-opacity="0.1625"/>
<stop offset="0.8233" stop-opacity="0"/>
<stop offset="0.9155" stop-opacity="0"/>
<stop offset="0.9301" stop-opacity="0"/>
</radialGradient>
<radialGradient id="paint2_radial_13900_134476" cx="0" cy="0" r="1" gradientUnits="userSpaceOnUse" gradientTransform="translate(1383.4 151.343) rotate(-172.26) scale(219.09 225.873)">
<stop offset="0.559" stop-color="#94E2CA"/>
<stop offset="0.5695" stop-color="#5D8F7F" stop-opacity="0.9605"/>
<stop offset="0.6111" stop-color="#416459" stop-opacity="0.803"/>
<stop offset="0.6533" stop-color="#294039" stop-opacity="0.6433"/>
<stop offset="0.6955" stop-color="#172420" stop-opacity="0.4834"/>
<stop offset="0.7379" stop-color="#0A100E" stop-opacity="0.3233"/>
<stop offset="0.7803" stop-color="#030404" stop-opacity="0.1625"/>
<stop offset="0.8233" stop-color="#60A790" stop-opacity="0"/>
<stop offset="0.9155" stop-opacity="0"/>
<stop offset="0.9301" stop-color="#6FB59F" stop-opacity="0"/>
</radialGradient>
<radialGradient id="paint3_radial_13900_134476" cx="0" cy="0" r="1" gradientUnits="userSpaceOnUse" gradientTransform="translate(1250.57 236.88) rotate(-172.26) scale(136.573 140.801)">
<stop offset="0.559" stop-color="#94E2CA"/>
<stop offset="0.5695" stop-color="#5D8F7F" stop-opacity="0.9605"/>
<stop offset="0.6111" stop-color="#416459" stop-opacity="0.803"/>
<stop offset="0.6533" stop-color="#294039" stop-opacity="0.6433"/>
<stop offset="0.6955" stop-color="#172420" stop-opacity="0.4834"/>
<stop offset="0.7379" stop-color="#0A100E" stop-opacity="0.3233"/>
<stop offset="0.7803" stop-color="#030404" stop-opacity="0.1625"/>
<stop offset="0.8233" stop-opacity="0"/>
<stop offset="0.9155" stop-opacity="0"/>
<stop offset="0.9301" stop-opacity="0"/>
</radialGradient>
<linearGradient id="paint4_linear_13900_134476" x1="-47.6001" y1="992.774" x2="1090.18" y2="-985.514" gradientUnits="userSpaceOnUse">
<stop stop-color="#A4E9D9" stop-opacity="0"/>
<stop offset="0.4009" stop-color="#81D7CC" stop-opacity="0.26"/>
<stop offset="0.7779" stop-color="#66C9C3" stop-opacity="0.4"/>
<stop offset="1" stop-color="#5CC4BF" stop-opacity="0.41"/>
</linearGradient>
<linearGradient id="paint5_linear_13900_134476" x1="-353.415" y1="1077.78" x2="268.126" y2="-30.9044" gradientUnits="userSpaceOnUse">
<stop stop-color="#A4E9D9" stop-opacity="0"/>
<stop offset="0.4009" stop-color="#81D7CC" stop-opacity="0.26"/>
<stop offset="0.7779" stop-color="#66C9C3" stop-opacity="0.4"/>
<stop offset="1" stop-color="#5CC4BF" stop-opacity="0.41"/>
</linearGradient>
<linearGradient id="paint6_linear_13900_134476" x1="493.167" y1="-180.462" x2="937.322" y2="-1249.97" gradientUnits="userSpaceOnUse">
<stop stop-color="#A4E9D9" stop-opacity="0"/>
<stop offset="0.4009" stop-color="#81D7CC" stop-opacity="0.26"/>
<stop offset="0.7779" stop-color="#66C9C3" stop-opacity="0.4"/>
<stop offset="1" stop-color="#5CC4BF" stop-opacity="0.41"/>
</linearGradient>
<linearGradient id="paint7_linear_13900_134476" x1="825.078" y1="-128.949" x2="1318.63" y2="-1141.06" gradientUnits="userSpaceOnUse">
<stop stop-color="#A4E9D9" stop-opacity="0"/>
<stop offset="0.4009" stop-color="#81D7CC" stop-opacity="0.26"/>
<stop offset="0.7779" stop-color="#66C9C3" stop-opacity="0.4"/>
<stop offset="1" stop-color="#5CC4BF" stop-opacity="0.41"/>
</linearGradient>
<linearGradient id="paint8_linear_13900_134476" x1="-463.055" y1="1098.35" x2="27.7171" y2="262.683" gradientUnits="userSpaceOnUse">
<stop stop-color="#A4E9D9" stop-opacity="0"/>
<stop offset="0.4009" stop-color="#81D7CC" stop-opacity="0.26"/>
<stop offset="0.7779" stop-color="#66C9C3" stop-opacity="0.4"/>
<stop offset="1" stop-color="#5CC4BF" stop-opacity="0.41"/>
</linearGradient>
<linearGradient id="paint9_linear_13900_134476" x1="909.133" y1="98.0775" x2="1563.36" y2="972.102" gradientUnits="userSpaceOnUse">
<stop stop-color="#A4E9D9" stop-opacity="0"/>
<stop offset="0.4009" stop-color="#81D7CC" stop-opacity="0.26"/>
<stop offset="0.7779" stop-color="#66C9C3" stop-opacity="0.4"/>
<stop offset="1" stop-color="#5CC4BF" stop-opacity="0.41"/>
</linearGradient>
<linearGradient id="paint10_linear_13900_134476" x1="929.595" y1="-52.3841" x2="1299.29" y2="430.367" gradientUnits="userSpaceOnUse">
<stop stop-color="#A4E9D9" stop-opacity="0"/>
<stop offset="0.4009" stop-color="#81D7CC" stop-opacity="0.26"/>
<stop offset="0.7779" stop-color="#66C9C3" stop-opacity="0.4"/>
<stop offset="1" stop-color="#5CC4BF" stop-opacity="0.41"/>
</linearGradient>
<linearGradient id="paint11_linear_13900_134476" x1="1322.46" y1="557.538" x2="1708.48" y2="954.93" gradientUnits="userSpaceOnUse">
<stop stop-color="#A4E9D9" stop-opacity="0"/>
<stop offset="0.4009" stop-color="#81D7CC" stop-opacity="0.26"/>
<stop offset="0.7779" stop-color="#66C9C3" stop-opacity="0.4"/>
<stop offset="1" stop-color="#5CC4BF" stop-opacity="0.41"/>
</linearGradient>
<linearGradient id="paint12_linear_13900_134476" x1="1237.07" y1="693.656" x2="1588.53" y2="1101.9" gradientUnits="userSpaceOnUse">
<stop stop-color="#A4E9D9" stop-opacity="0"/>
<stop offset="0.4009" stop-color="#81D7CC" stop-opacity="0.26"/>
<stop offset="0.7779" stop-color="#66C9C3" stop-opacity="0.4"/>
<stop offset="1" stop-color="#5CC4BF" stop-opacity="0.41"/>
</linearGradient>
<linearGradient id="paint13_linear_13900_134476" x1="941.287" y1="-104.453" x2="1215.73" y2="269.212" gradientUnits="userSpaceOnUse">
<stop stop-color="#A4E9D9" stop-opacity="0"/>
<stop offset="0.4009" stop-color="#81D7CC" stop-opacity="0.26"/>
<stop offset="0.7779" stop-color="#66C9C3" stop-opacity="0.4"/>
<stop offset="1" stop-color="#5CC4BF" stop-opacity="0.41"/>
</linearGradient>
<clipPath id="clip0_13900_134476">
<rect width="1440" height="1024" fill="white"/>
</clipPath>
<clipPath id="clip1_13900_134476">
<rect width="1920" height="1080" fill="white" transform="translate(-375 -28)"/>
</clipPath>
<clipPath id="clip2_13900_134476">
<rect width="650.876" height="508.408" fill="white" transform="translate(970.695 72.9258) rotate(-30.726)"/>
</clipPath>
</defs>
</svg>
