<svg xmlns="http://www.w3.org/2000/svg" width="32" height="32" viewBox="0 0 32 32" fill="none"><path d="M9.67003 30.5334H22.2855C26.8392 30.5334 30.5333 26.8643 30.5333 22.2855V9.67003C30.5333 5.11524 26.8403 1.42221 22.2855 1.42221H9.67003C5.11524 1.42221 1.42221 5.11524 1.42221 9.67003V22.2855C1.42221 26.8403 5.11524 30.5334 9.67003 30.5334Z" fill="url(#paint0_radial)" stroke="#9B51E0" stroke-width="1.15559"></path><path d="M15.9665 9.73913C14.8675 8.70882 13.3793 8.06775 11.7537 8.06775C10.1052 8.06775 8.617 8.70883 7.49512 9.76203C9.78468 8.61725 12.8985 10.0597 13.6998 13.1735C13.6998 13.1735 13.6998 13.1735 13.6998 13.1964C13.8601 13.494 13.9517 13.8146 13.9517 14.1809C13.9746 14.5014 14.0433 14.7762 14.1577 15.028C14.4325 15.7607 15.1651 16.3102 15.9894 16.3102C16.7907 16.3102 17.4776 15.8294 17.7982 15.1425C17.9355 14.8678 18.6224 12.7842 15.9665 9.73913Z" fill="url(#paint1_radial)" stroke="white" stroke-width="0.309915"></path><path d="M7.4955 9.76169C6.35072 10.8607 5.64095 12.3718 5.57227 14.089V14.1119V14.1348C5.57227 16.6762 6.51098 18.9428 7.35812 20.4768C7.79314 21.2782 8.22816 21.8964 8.5487 22.3543C8.70897 22.5832 8.86923 22.7664 8.96082 22.8809C9.00661 22.9496 9.0524 22.9954 9.07529 23.0412C9.09819 23.064 9.09819 23.0869 9.12109 23.0869L9.14399 23.1098C9.51032 23.522 9.99113 23.7509 10.4719 23.7738C10.4719 23.6135 7.06049 19.4008 9.67059 13.3105C9.83086 12.9442 10.014 12.7152 10.1972 12.6007C10.5864 12.2344 11.1359 12.0055 11.7083 12.0055C12.5554 12.0055 13.2881 12.4863 13.6773 13.196C13.6773 13.196 13.6773 13.196 13.6773 13.1731C12.9218 10.0364 9.80796 8.61691 7.4955 9.76169Z" fill="url(#paint2_radial)" stroke="white" stroke-width="0.309915"></path><path d="M12.4642 21.0267C12.3726 20.8435 12.281 20.6603 12.1436 20.5001C12.1436 20.5001 12.1436 20.4772 12.1207 20.4772C12.0979 20.4543 12.0749 20.4314 12.0521 20.3856C11.9834 20.294 11.8918 20.1795 11.7544 19.9964C11.5026 19.6529 11.1591 19.1492 10.8386 18.5311C10.1517 17.2718 9.53353 15.692 9.53353 14.1122C9.55643 13.494 9.83118 12.9445 10.2433 12.5553C10.0372 12.6698 9.85408 12.8987 9.71671 13.2651C7.10661 19.3782 10.4952 23.5681 10.5181 23.7284C10.7241 23.7513 10.9302 23.7284 11.1362 23.6826C11.4339 23.6139 11.7086 23.4765 11.9605 23.2475C12.6016 22.698 12.8076 21.8051 12.4642 21.0267Z" fill="url(#paint3_radial)" stroke="white" stroke-width="0.309915"></path><path d="M16.0125 9.73913C17.1115 8.68593 18.5997 8.06775 20.2253 8.06775C21.8738 8.06775 23.362 8.70883 24.461 9.76203C22.1714 8.61725 19.0576 10.0597 18.2563 13.1735C18.2563 13.1735 18.2563 13.1735 18.2563 13.1964C18.096 13.494 18.0044 13.8146 18.0044 14.1809C17.9815 14.5014 17.9129 14.7762 17.7984 15.028C17.5236 15.7607 16.791 16.3102 15.9667 16.3102C15.1654 16.3102 14.4785 15.8294 14.158 15.1425C14.0435 14.8678 13.3566 12.7842 16.0125 9.73913Z" fill="url(#paint4_radial)" stroke="white" stroke-width="0.309915"></path><path d="M24.4846 9.76169C25.6293 10.8607 26.362 12.3718 26.4078 14.089V14.1119V14.1348C26.4078 16.6762 25.4691 18.9428 24.6219 20.4768C24.1869 21.2782 23.7519 21.8964 23.4313 22.3543C23.2711 22.5832 23.1108 22.7664 23.0192 22.8809C22.9734 22.9496 22.9276 22.9954 22.9047 23.0412C22.8819 23.064 22.8819 23.0869 22.859 23.0869L22.8361 23.1098C22.4697 23.522 21.9889 23.7509 21.5081 23.7738C21.5081 23.6135 24.9196 19.4008 22.3095 13.3105C22.1492 12.9442 22.0805 12.8755 21.7829 12.6007C21.4852 12.326 20.8441 12.0055 20.2718 12.0055C19.4246 12.0055 18.692 12.4863 18.3027 13.196C18.3027 13.196 18.3027 13.196 18.3027 13.1731C19.0583 10.0364 22.1721 8.61691 24.4846 9.76169Z" fill="url(#paint5_radial)" stroke="white" stroke-width="0.309915"></path><path d="M19.5152 21.0266C19.6068 20.8434 19.6984 20.6603 19.8358 20.5C19.8358 20.5 19.8358 20.4771 19.8587 20.4771C19.8816 20.4542 19.9045 20.4313 19.9274 20.3855C19.9961 20.2939 20.0876 20.1795 20.225 19.9963C20.4769 19.6529 20.8203 19.1492 21.1408 18.531C21.8277 17.2946 22.423 15.7148 22.4459 14.1121C22.423 13.4939 22.2398 13.1505 22.2398 13.1505C24.8499 19.2636 21.4843 23.5909 21.4614 23.7512C21.2553 23.7741 21.0493 23.7512 20.8432 23.7054C20.5455 23.6367 20.2708 23.4993 20.019 23.2704C19.3779 22.698 19.1718 21.8051 19.5152 21.0266Z" fill="url(#paint6_radial)" stroke="white" stroke-width="0.309915"></path><defs><radialGradient id="paint0_radial" cx="0" cy="0" r="1" gradientUnits="userSpaceOnUse" gradientTransform="translate(10.0101 9.30588) scale(15.0768)"><stop stop-color="#BD64D2"></stop><stop offset="0.0907096" stop-color="#B75ECE"></stop><stop offset="0.2145" stop-color="#A54EC3"></stop><stop offset="0.3194" stop-color="#913BB6"></stop><stop offset="0.4501" stop-color="#8D3BB4"></stop><stop offset="0.5895" stop-color="#8039B0"></stop><stop offset="0.7328" stop-color="#6B37A8"></stop><stop offset="0.8778" stop-color="#4D349D"></stop><stop offset="1" stop-color="#2E3192"></stop></radialGradient><radialGradient id="paint1_radial" cx="0" cy="0" r="1" gradientUnits="userSpaceOnUse" gradientTransform="translate(12.7492 12.184) scale(4.71561)"><stop offset="0.3775" stop-color="#81FCFF" stop-opacity="0"></stop><stop offset="0.5138" stop-color="#60F7FF" stop-opacity="0.2189"></stop><stop offset="0.6829" stop-color="#9EECFF" stop-opacity="0.49"></stop><stop offset="0.8686" stop-color="#A6FCFF" stop-opacity="0.79"></stop><stop offset="1" stop-color="#C5FDFF"></stop></radialGradient><radialGradient id="paint2_radial" cx="0" cy="0" r="1" gradientUnits="userSpaceOnUse" gradientTransform="translate(9.6503 16.573) scale(5.84489)"><stop offset="0.3775" stop-color="#81FCFF" stop-opacity="0"></stop><stop offset="0.5138" stop-color="#60F7FF" stop-opacity="0.2189"></stop><stop offset="0.6829" stop-color="#9EECFF" stop-opacity="0.49"></stop><stop offset="0.8686" stop-color="#A6FCFF" stop-opacity="0.79"></stop><stop offset="1" stop-color="#C5FDFF"></stop></radialGradient><radialGradient id="paint3_radial" cx="0" cy="0" r="1" gradientUnits="userSpaceOnUse" gradientTransform="translate(10.6712 18.1886) scale(4.18811)"><stop offset="0.3775" stop-color="#81FCFF" stop-opacity="0"></stop><stop offset="0.5138" stop-color="#60F7FF" stop-opacity="0.2189"></stop><stop offset="0.6829" stop-color="#9EECFF" stop-opacity="0.49"></stop><stop offset="0.8686" stop-color="#A6FCFF" stop-opacity="0.79"></stop><stop offset="1" stop-color="#C5FDFF"></stop></radialGradient><radialGradient id="paint4_radial" cx="0" cy="0" r="1" gradientUnits="userSpaceOnUse" gradientTransform="translate(19.2226 12.184) scale(4.71315)"><stop offset="0.3775" stop-color="#81FCFF" stop-opacity="0"></stop><stop offset="0.5138" stop-color="#60F7FF" stop-opacity="0.2189"></stop><stop offset="0.6829" stop-color="#9EECFF" stop-opacity="0.49"></stop><stop offset="0.8686" stop-color="#A6FCFF" stop-opacity="0.79"></stop><stop offset="1" stop-color="#C5FDFF"></stop></radialGradient><radialGradient id="paint5_radial" cx="0" cy="0" r="1" gradientUnits="userSpaceOnUse" gradientTransform="translate(22.33 16.573) scale(5.84488)"><stop offset="0.3775" stop-color="#81FCFF" stop-opacity="0"></stop><stop offset="0.5138" stop-color="#60F7FF" stop-opacity="0.2189"></stop><stop offset="0.6829" stop-color="#9EECFF" stop-opacity="0.49"></stop><stop offset="0.8686" stop-color="#A6FCFF" stop-opacity="0.79"></stop><stop offset="1" stop-color="#C5FDFF"></stop></radialGradient><radialGradient id="paint6_radial" cx="0" cy="0" r="1" gradientUnits="userSpaceOnUse" gradientTransform="translate(21.2911 18.4922) scale(3.98985)"><stop offset="0.3775" stop-color="#81FCFF" stop-opacity="0"></stop><stop offset="0.5138" stop-color="#60F7FF" stop-opacity="0.2189"></stop><stop offset="0.6829" stop-color="#9EECFF" stop-opacity="0.49"></stop><stop offset="0.8686" stop-color="#A6FCFF" stop-opacity="0.79"></stop><stop offset="1" stop-color="#C5FDFF"></stop></radialGradient></defs></svg>